# xmcd
#
# Track frame offsets:
#	150
#	13897
#	27962
#	41877
#	55980
#	68747
#	81347
#	93937
#	109567
#	123675
#	136892
#	150655
#	160645
#	172572
#	184650
#	200832
#	212190
#	225780
#	241577
#	251620
#	265217
#
# Disc length: 3682 seconds
#
# Revision: 1
# Processed by: cddbd v1.5.1PL0 Copyright (c) Steve Scherf et al.
# Submitted via: audiograbber 1.83.01
#
DISCID=120e6015
DTITLE=Gregorio Barrios - Alma LLanera
DYEAR=1900
DGENRE=Blues
TTITLE0=Ay de Mi
TTITLE1=Quien es
TTITLE2=Donde estara mi vida?
TTITLE3=Vereda Tropical
TTITLE4=Recuerdos de Ypacarai
TTITLE5=Cuentame tu vida
TTITLE6=Vanidad 
TTITLE7=Besame Mucho
TTITLE8=Nunca Jamas
TTITLE9=De cigarro em cigarro
TTITLE10=Que tu vaya bein
TTITLE11=Recuerdos
TTITLE12=Clopin - Clopant
TTITLE13=Luna Lunera
TTITLE14=El  Reloj
TTITLE15=Esta tarde vi LLover
TTITLE16=Alma LLanera
TTITLE17=Flores negras
TTITLE18=No diga no
TTITLE19=Yo creo
TTITLE20=Diez minutos mas
EXTD=
EXTT0=
EXTT1=
EXTT2=
EXTT3=
EXTT4=
EXTT5=
EXTT6=
EXTT7=
EXTT8=
EXTT9=
EXTT10=
EXTT11=
EXTT12=
EXTT13=
EXTT14=
EXTT15=
EXTT16=
EXTT17=
EXTT18=
EXTT19=
EXTT20=
PLAYORDER=
